<?xml version="1.0" encoding="UTF-8"?>
<svg id="Layer_2" data-name="Layer 2" xmlns="http://www.w3.org/2000/svg" viewBox="0 0 1048.14 501.71">
  <defs>
    <style>
      .cls-1 {
        fill: #79b740;
      }

      .cls-2 {
        fill: #79b840;
      }

      .cls-3 {
        fill: #3c7f30;
      }

      .cls-4 {
        fill: #76b63b;
      }

      .cls-5 {
        fill: #397d2d;
      }

      .cls-6 {
        fill: #7ab840;
      }

      .cls-7 {
        fill: #76b63c;
      }

      .cls-8 {
        fill: #f2f8ed;
      }

      .cls-9 {
        fill: #74b539;
      }

      .cls-10 {
        fill: #7cb943;
      }

      .cls-11 {
        fill: #c45728;
      }

      .cls-12 {
        fill: #7bb842;
      }

      .cls-13 {
        fill: #3b7e2f;
      }

      .cls-14 {
        fill: #75b539;
      }

      .cls-15 {
        fill: #7bb943;
      }

      .cls-16 {
        fill: #397d2e;
      }

      .cls-17 {
        fill: #3b7f30;
      }

      .cls-18 {
        fill: #f7faf4;
      }

      .cls-19 {
        fill: #f8faf5;
      }
    </style>
  </defs>
  <g id="Layer_1-2" data-name="Layer 1">
    <g>
      <polygon class="cls-9" points="186.29 82 352.79 163.99 352.33 225.54 351.28 266 186.29 185.5 186.29 82"/>
      <polygon class="cls-5" points="169.29 83 169.29 186.5 5.29 266 3.23 166.44 4.89 163.1 169.29 83"/>
      <path class="cls-9" d="M186.29,206l163.29,78.94c3.78,3.03-.47,23.02-1.59,28.26-3.21,15-10.07,33.3-16.99,47.01-1.5,2.98-5.65,11.82-7.23,13.76-.57.69-1.02,1.16-2,1.11l-135.49-66.58v-102.5Z"/>
      <path class="cls-5" d="M169.29,207v102.5l-133.55,66.45c-2.87-.15-7.12-9.47-8.59-12.31-9.95-19.11-22.05-51.69-21.94-73.14,0-1.45.31-4.26,1.37-5.23l162.72-78.27Z"/>
      <path class="cls-14" d="M971.79,36l39.5,104V37.5l1.5-1.5h33.5v167h-38.5c-.29,0-1.83-.93-2.22-1.3l-37.29-102.7c-.31-.32-1.99,1.29-1.99,1.5v102.5h-31.5c-.33,0-1.52-1.32-2.5-1V36h39.5Z"/>
      <path class="cls-5" d="M169.29,0v63.5L3.8,145.02c-2.08.21-1.32-.11-1.51-1.5-.6-4.18.29-9.63.04-14.06-.86-15.44-.74-30.49-1-46-.09-5.75-3.1-24.16.25-28.18C50.22,19.96,109.18,1.82,169.29,0Z"/>
      <path class="cls-3" d="M1007.79,232c20.99,1.57,36.95,9.77,39.54,32.46-2.05,33.49,2.61,69.95,0,103.07-1.43,18.23-14.84,31.46-33.54,31.46h-71l-1.5-1.5v-164l1.5-1.5h65ZM981.29,262v106.5c2.61,2.31,9.03,1.84,12.49,1.49,6.18-.64,11.65-2.68,12.42-9.58l.03-88.84c-.66-4.24-5-9.56-9.44-9.56h-15.5Z"/>
      <path class="cls-9" d="M186.29,1c51.12.89,103.78,15.94,147.85,41.65,3.56,2.07,21.2,12.55,21.96,15.04l-2.32,86.33L186.29,62.5V1Z"/>
      <path class="cls-16" d="M599.29,233v65.5l1.5,1.5h23c.33,0,1.52-1.32,2.5-1v-66h40v166h-38.5l-1.5-1.5v-67.5c-.98.32-2.17-1-2.5-1h-23l-1.5,1.5v67l-1.5,1.5h-37l-1.5-1.5v-164.5h40Z"/>
      <path class="cls-4" d="M647.79,36c18.51,1.63,30.81,11.47,32.48,30.52,1.12,12.72,1.1,31.91-8.45,41.52-2.58,2.6-6.76,3.96-8.91,5.88-.77.7-1.03,1.65-.63,2.07,6.72,1.65,12.6,4.29,15.82,10.7,6.88,13.71,1.31,47.22,3.18,63.82.57,5.1,3.29,8.06,5,12.5h-35.5c-3.98,0-7.19-16.04-7.48-19.52-1.07-12.78,2.07-31.32-.06-42.94-.63-3.45-6.18-8.55-9.45-8.55h-17.5v70c-1.83.46-3.53.9-5.45,1.05-4.36.34-30.26.5-32.53-.56-.47-.22-2.02-1.81-2.02-1.98V37.5l1.5-1.5h70ZM634.79,65c-5.68-.74-12.66.54-18.5,0v36.5l1.5,1.5h15c13.84,0,13.46-23.17,10.17-32.19-1.35-3.7-4.28-5.3-8.17-5.81Z"/>
      <path class="cls-4" d="M494.29,142v-26.5l1.5-1.5h54l1.5,1.5v86.5l-37.36.86-1.5-1.5-.65-11.37c-8.37,6.7-15.89,12.12-27.01,13-34.97,2.75-40.24-21.62-41.53-50.44-.92-20.66-1.02-46.46,0-67.08,1.68-33.93,10.28-50.32,46.5-52.5,27.76-1.67,58.8,2.28,61.53,35.56.29,3.5,1.06,21.48-2.48,21.48h-35c-3.15-5.72-.39-13.34-2.98-20.02-3.19-8.22-15.15-9.58-21.87-4.84-3.41,2.41-4.34,8.31-4.68,12.32-1.82,21.34-1.83,61.74,0,83.07.32,3.69,1.36,9.4,3.98,12.02,5.33,5.34,18.38,4.93,21.94-2.18.53-1.06,2.12-7.06,2.12-7.88v-19l-1.5-1.5h-16.5Z"/>
      <path class="cls-13" d="M505.79,284c-3.31-1.02.71-20.79-5.28-23.97s-15.17-1.57-16.79,5.9c-1.77,8.17-.8,16.94,5.66,22.48,17.66,15.16,52.99,27.35,56.81,52.19,4.04,26.33-1.69,52.65-30.86,58.93-25.29,5.44-74.03,2.42-74.03-33.03v-20.5c.98.32,2.17-1,2.5-1h37l1.5,1.5v17c0,8.36,21.88,13.51,23.91-2.08,1.25-9.59-1.62-14.41-8.44-20.39-15.26-13.38-48.91-27.88-53.4-48.6-3.71-17.16-1.42-45.82,15.01-55.84s62.88-10.91,75.89,4.94c3.9,4.76,8.03,18.02,8.03,23.97v17l-1.5,1.5h-36Z"/>
      <path class="cls-7" d="M798.29,36v28.5l-1.5,1.5h-46l-1.5,1.5v35.5h32.5c.33,0,1.52,1.32,2.5,1v27.5l-1.5,1.5h-32l-1.5,1.5v36l1.5,1.5h46l1.5,1.5v28l-1.5,1.5h-87l-1.5-1.5V37.5l1.5-1.5h88.5Z"/>
      <path class="cls-4" d="M913.29,36v28.5l-1.5,1.5h-47l-1.5,1.5v35.5h33.5l1.5,1.5v28.5h-32.5c-.33,0-1.52,1.32-2.5,1v36.5l1.5,1.5h47l1.5,1.5v28l-1.5,1.5h-87l-1.5-1.5V36h90Z"/>
      <path class="cls-17" d="M835.29,232c1.26.81,1.64,26.52.48,28.98-.22.47-1.81,2.02-1.98,2.02h-43.5v35.5l1.5,1.5h31.5v30h-33v39h44.5l1.5,1.5v27l-1.5,1.5h-84l-1.5-1.5v-164l1.5-1.5h84.5Z"/>
      <path class="cls-9" d="M186.29,329l126.09,61.49c-.06,1.76-3.45,6.7-4.66,8.44-17.64,25.45-43.11,48.73-67.91,67.05-3.71.12-23.53-19.98-27.04-23.97-6.49-7.38-26.49-34.57-26.49-43.51v-69.5Z"/>
      <path class="cls-5" d="M169.29,330v72.5c0,.93-7.34,14.37-8.59,16.41-7.13,11.69-20.2,27.47-30.4,36.6-3.03,2.72-10.68,10.01-14.43,9.5-2.74-.37-17.45-12.8-20.6-15.5-19.52-16.71-36.95-36.43-50.97-57.95l124.99-61.57Z"/>
      <polygon class="cls-17" points="891.29 369 931.29 369 931.29 399 850.29 399 850.29 233.5 851.79 232 889.79 232 891.29 233.5 891.29 369"/>
      <polygon class="cls-13" points="728.29 233 728.29 397.5 726.79 399 688.79 399 687.29 397.5 687.29 233 728.29 233"/>
      <path class="cls-11" d="M179.27,423.01c6.18,11.85,14.5,23.11,23.5,33.01,2.98,3.28,21.52,19.75,21.52,21.48-15.26,8.32-29.91,18.21-46.36,24.22-15.39-6.47-30.2-14.69-44.37-23.46-.78-.48-1.62.23-1.32-1.75.23-1.49,16.01-15.11,18.96-18.31,4.72-5.12,10.22-11.75,14.47-17.29,3.39-4.43,8.17-13.85,11.16-16.84.83-.82.91-1.42,2.42-1.05Z"/>
      <path class="cls-6" d="M987.79,429h32c.4,0,6.78,1.93,7.7,2.3,24.24,9.63,24.11,51.84-1.18,59.23-.88.26-6.19,1.48-6.52,1.48h-32l-1.5-1.5v-60l1.5-1.5ZM999.29,442.5c-1.75,10.7,1.3,25.79,0,37l1.5,1.5h16c4.37,0,11.17-4.91,12.73-9.27,7.79-21.66-7.27-35.05-28.55-31.77-.62.15-1.61,2.05-1.69,2.54Z"/>
      <path class="cls-2" d="M641.79,429c20.19,2.73,25.9,30.37,5.47,37.55l14.03,25.45h-14.5c-4.58-3.66-11.42-22.09-16.02-22.98-2.54-.49-5.81.27-8.48-.02v21.5c-3.47,3.06-9.56.88-14,1.5v-63c10.46,1.01,23.36-1.37,33.5,0ZM621.29,440v17.5c2.66,2.34,8.96,1.81,12.48,1.48,4.44-.41,9.16-1.28,11.39-5.61,7.01-13.64-15.45-16.22-23.87-13.37Z"/>
      <path class="cls-12" d="M579.29,429v11h-36v14h33v11h-33v16h37.5l1.34,1.66c.28,1.26.22,2.56.22,3.84,0,2.05.33,4.23-1.56,5.5h-50l-1.5-1.5v-60l1.5-1.5h48.5Z"/>
      <path class="cls-15" d="M925.29,440v14h33v11h-33v16h38v11h-52v-63h48.5l1.34,1.66c.28,1.26.22,2.56.22,3.84,0,2.05.33,4.23-1.56,5.5h-34.5Z"/>
      <path class="cls-6" d="M491.39,449.89c-4.71-16.99-27.42-12.9-31.8,2.91-6.98,25.15,20.79,41.3,34.37,17.3l12.31,4.48c-6.15,19.26-32.27,24.32-48.3,14.24-17.72-11.14-19-41.31-2.69-54.33,15.63-12.48,43.59-8.86,50,11.97-.3,1.45-12.58,4.57-13.89,3.43Z"/>
      <path class="cls-10" d="M843.29,440h-33v15h28c1.34,3.85,1.34,7.15,0,11h-28v24.5c-3.07,2.44-11.05,2.41-14,0v-60l1.5-1.5h44c2.85,2.64,1.05,7.43,1.5,11Z"/>
      <path class="cls-2" d="M731.29,441h-19v49.5c-3.46,3.06-9.56.88-14,1.5v-51h-17.5c-2.73,0-3.91-10.36-1-12h51c2.98,3.04,1.34,8.32.5,12Z"/>
      <rect class="cls-4" x="753.29" y="429" width="13" height="63"/>
      <path class="cls-1" d="M881.29,429v63l-12.56-.94-.3-60.42c1.01-3.1,10.03-1.1,12.86-1.64Z"/>
      <path class="cls-19" d="M634.79,65c3.88.5,6.82,2.11,8.17,5.81,3.29,9.03,3.67,32.19-10.17,32.19h-15l-1.5-1.5v-36.5c5.84.54,12.82-.74,18.5,0Z"/>
      <path class="cls-18" d="M999.29,442.5c.08-.49,1.07-2.39,1.69-2.54,21.27-3.28,36.34,10.11,28.55,31.77-1.57,4.35-8.36,9.27-12.73,9.27h-16l-1.5-1.5c1.3-11.21-1.75-26.3,0-37Z"/>
      <path class="cls-8" d="M621.29,440c8.42-2.85,30.88-.27,23.87,13.37-2.22,4.32-6.94,5.2-11.39,5.61-3.52.33-9.82.86-12.48-1.48v-17.5Z"/>
    </g>
  </g>
</svg>