<?xml version="1.0" encoding="UTF-8"?>
<svg id="Layer_2" data-name="Layer 2" xmlns="http://www.w3.org/2000/svg" xmlns:xlink="http://www.w3.org/1999/xlink" viewBox="0 0 387.84 372.08">
  <defs>
    <style>
      .cls-1 {
        fill: url(#linear-gradient-2);
      }

      .cls-2 {
        fill: url(#linear-gradient-4);
      }

      .cls-3 {
        fill: url(#linear-gradient-3);
      }

      .cls-4 {
        fill: url(#linear-gradient);
      }
    </style>
    <linearGradient id="linear-gradient" x1="193.82" y1="263.73" x2="193.82" y2="57.92" gradientUnits="userSpaceOnUse">
      <stop offset="0" stop-color="#2badb4"/>
      <stop offset="1" stop-color="#5fffe2"/>
    </linearGradient>
    <linearGradient id="linear-gradient-2" x1="194.05" y1="210.54" x2="194.05" y2="0" xlink:href="#linear-gradient"/>
    <linearGradient id="linear-gradient-3" x1="193.92" y1="302.88" x2="193.92" y2="220.54" xlink:href="#linear-gradient"/>
    <linearGradient id="linear-gradient-4" x1="193.56" y1="372.08" x2="193.56" y2="306.13" xlink:href="#linear-gradient"/>
  </defs>
  <g id="Layer_1-2" data-name="Layer 1">
    <g>
      <path class="cls-4" d="M193.02,57.93c2-.49,8.64,10.59,10.11,12.84,16.02,24.52,53.43,79.48,58.91,105.83,8.78,42.21-14.85,83.66-60,86.87-67.29,4.78-96.57-57.76-66.42-113.15l57.39-92.4ZM142.38,174.78c-1.18-.8-5.12-.34-5.73,1.5-.77,2.31-.35,7.61,2.51,8.17,4.81.9,5.29-8.27,3.23-9.67ZM177.5,245.47c2.49-3.25-14.8-9.02-16.94-10.53-7.1-5.01-14.53-14.87-16.6-23.35-1.3-5.34.38-15.63-6.46-14.01-1.33,15.62,6.2,31.39,18.49,40.91,3.16,2.44,18.85,10.41,21.5,6.97Z"/>
      <path class="cls-1" d="M337.43,210.49c-.71.5-15.04-2.34-14.96-5.4,2.19-9.59,4.48-19.33,5.92-29.06,4.47-30.2,7.04-63.31,4.13-93.66-.14-1.5-.47-2.99-1.17-4.32l-7.82-1.67L194.01,18.08c-10.03,4.31-20.2,8.32-30.18,12.73-32.07,14.17-64.22,31.15-96.64,44.25-3.49,1.41-6.68,3.04-10.53,2.96-1.98,1.24-.96,16.99-1.11,20.35-.78,18-1.44,35.76-.04,53.82,1.4,18.11,5.28,35.9,8.05,53.81-3.14.46-8.6,3.42-11.42,2.46-1.74-.59-3.83-12.08-4.34-14.66-3.75-18.98-5.62-38.36-7.33-57.53l.2-67.73,2.79-2.2L194.01,0l152.51,67.39,1.04,2.95c-.49,47.11,3.05,94.42-10.13,140.14Z"/>
      <path class="cls-3" d="M52.5,220.54c.49,2.93-.69,1.62-2.35,2.09-9.38,2.67-34.5,12.6-32.25,24.86.91,4.98,7.96,11.65,12.58,13.47,57.86,22.86,131.85,24.84,193.53,22.42,38.64-1.51,88.58-4.53,124.48-19.47,9-3.75,23.39-10.77,19.81-22.74-.14-.48-5.74-7.26-6.27-7.7-5.41-4.47-17.42-8.27-24.16-10.86-1.43-.55-2.92.97-2.37-2.07,4.87.33,10.81,2.29,15.53,3.95,8.63,3.03,24.81,9.63,30.87,16.1,14.58,15.55-.52,28.53-15.05,35.67-37.39,18.38-88.66,22.75-129.85,25.09-57.12,3.24-118.81,2.18-174.72-11.26-16.86-4.05-47.43-13.02-58.29-26.64-14.64-18.35,14.65-31.98,28.52-37.41,6.18-2.42,13.36-5.25,19.98-5.49Z"/>
      <path class="cls-2" d="M288.5,306.33c.82.73-2.77,5.15-3.48,6-22.64,26.89-58.22,47.74-90.99,59.75-36.72-13.17-71.12-35.17-95.52-65.74.93-.74,19.93,1.56,21.98,2.5,3.57,1.64,12.81,11.56,17.1,14.87,16.95,13.08,36.11,23.48,56.42,30.38,21.02-7.13,40.5-18.29,57.97-31.83,4.17-3.23,11.81-11.67,15.6-13.37,2.33-1.05,19.93-3.45,20.93-2.55Z"/>
    </g>
  </g>
</svg>